<svg width="106" height="31" viewBox="0 0 106 31" fill="none" xmlns="http://www.w3.org/2000/svg">
<path d="M4.90057 14H0.703125V3.09091H4.85795C5.98011 3.09091 6.94957 3.3093 7.76634 3.74609C8.58665 4.17933 9.21875 4.80433 9.66264 5.62109C10.1101 6.4343 10.3338 7.40909 10.3338 8.54545C10.3338 9.68182 10.1119 10.6584 9.66797 11.4751C9.22408 12.2884 8.59553 12.9134 7.78232 13.3501C6.96911 13.7834 6.00852 14 4.90057 14ZM3.66477 11.4858H4.79403C5.33381 11.4858 5.79368 11.3988 6.17365 11.2248C6.55717 11.0508 6.84837 10.7507 7.04723 10.3246C7.24965 9.89844 7.35085 9.3054 7.35085 8.54545C7.35085 7.78551 7.24787 7.19247 7.0419 6.76633C6.83949 6.3402 6.54119 6.04013 6.14702 5.86612C5.75639 5.69212 5.27699 5.60511 4.70881 5.60511H3.66477V11.4858ZM14.1757 3.09091V4.36932C14.1757 4.71733 14.1047 5.06534 13.9626 5.41335C13.8241 5.75781 13.6466 6.07919 13.43 6.37749C13.2169 6.67223 12.9967 6.91903 12.7694 7.1179L11.555 6.5C11.7041 6.24432 11.8373 5.9478 11.9545 5.61044C12.0716 5.27308 12.1302 4.85937 12.1302 4.36932V3.09091H14.1757ZM25.7413 7.18182H22.737C22.7157 6.93324 22.6589 6.70774 22.5666 6.50533C22.4778 6.30291 22.3535 6.12891 22.1937 5.98331C22.0375 5.83416 21.8475 5.72053 21.6238 5.6424C21.4 5.56072 21.1461 5.51989 20.862 5.51989C20.3649 5.51989 19.9441 5.64062 19.5996 5.8821C19.2587 6.12358 18.9995 6.46981 18.8219 6.92081C18.6479 7.3718 18.5609 7.91335 18.5609 8.54545C18.5609 9.21307 18.6497 9.77237 18.8272 10.2234C19.0083 10.6708 19.2694 11.0082 19.6103 11.2354C19.9512 11.4592 20.3613 11.571 20.8407 11.571C21.1142 11.571 21.3592 11.5373 21.5758 11.4698C21.7924 11.3988 21.9806 11.2976 22.1404 11.1662C22.3002 11.0348 22.4299 10.8768 22.5293 10.6921C22.6323 10.5039 22.7015 10.2926 22.737 10.0582L25.7413 10.0795C25.7058 10.5412 25.5762 11.0117 25.3525 11.4911C25.1287 11.967 24.8109 12.4073 24.399 12.8121C23.9906 13.2134 23.4846 13.5366 22.8809 13.7816C22.2772 14.0266 21.5758 14.1491 20.7768 14.1491C19.7754 14.1491 18.877 13.9343 18.0815 13.5046C17.2896 13.0749 16.6628 12.4428 16.2012 11.6083C15.7431 10.7738 15.514 9.75284 15.514 8.54545C15.514 7.33097 15.7484 6.30824 16.2172 5.47727C16.6859 4.64276 17.318 4.01243 18.1135 3.58629C18.9089 3.1566 19.7967 2.94176 20.7768 2.94176C21.4657 2.94176 22.0996 3.03587 22.6784 3.22408C23.2573 3.41229 23.7651 3.6875 24.2019 4.04972C24.6387 4.40838 24.9902 4.8505 25.2566 5.37607C25.5229 5.90163 25.6845 6.50355 25.7413 7.18182ZM29.5819 14H26.3858L29.9867 3.09091H34.035L37.6358 14H34.4398L32.0534 6.09517H31.9682L29.5819 14ZM28.9853 9.69602H34.9938V11.9119H28.9853V9.69602ZM38.6865 14V3.09091H43.3953C44.205 3.09091 44.9134 3.23828 45.5207 3.53303C46.1279 3.82777 46.6002 4.25213 46.9376 4.80611C47.2749 5.36009 47.4436 6.02415 47.4436 6.7983C47.4436 7.57955 47.2696 8.23828 46.9216 8.7745C46.5771 9.31072 46.0924 9.71555 45.4674 9.98899C44.846 10.2624 44.1198 10.3991 43.2888 10.3991H40.4763V8.09801H42.6922C43.0402 8.09801 43.3367 8.0554 43.5818 7.97017C43.8303 7.88139 44.0203 7.74112 44.1517 7.54936C44.2867 7.3576 44.3541 7.10724 44.3541 6.7983C44.3541 6.4858 44.2867 6.23189 44.1517 6.03658C44.0203 5.83771 43.8303 5.69212 43.5818 5.59979C43.3367 5.50391 43.0402 5.45597 42.6922 5.45597H41.6482V14H38.6865ZM45.0786 8.9929L47.8058 14H44.5885L41.9252 8.9929H45.0786ZM58.145 3.09091V14H55.6734L51.7316 8.26847H51.6677V14H48.7061V3.09091H51.2203L55.0981 8.80114H55.1833V3.09091H58.145ZM62.5075 3.09091V14H59.5459V3.09091H62.5075ZM66.8941 3.09091L69.1313 10.7827H69.2165L71.4537 3.09091H74.7989L71.1981 14H67.1498L63.5489 3.09091H66.8941ZM85.7293 8.54545C85.7293 9.75994 85.4932 10.7844 85.0209 11.619C84.5486 12.4499 83.9111 13.0803 83.1086 13.5099C82.306 13.9361 81.4111 14.1491 80.4239 14.1491C79.4296 14.1491 78.5312 13.9343 77.7286 13.5046C76.9296 13.0714 76.2939 12.4393 75.8216 11.6083C75.3529 10.7738 75.1185 9.75284 75.1185 8.54545C75.1185 7.33097 75.3529 6.30824 75.8216 5.47727C76.2939 4.64276 76.9296 4.01243 77.7286 3.58629C78.5312 3.1566 79.4296 2.94176 80.4239 2.94176C81.4111 2.94176 82.306 3.1566 83.1086 3.58629C83.9111 4.01243 84.5486 4.64276 85.0209 5.47727C85.4932 6.30824 85.7293 7.33097 85.7293 8.54545ZM82.6824 8.54545C82.6824 7.89205 82.5954 7.34162 82.4214 6.89418C82.251 6.44318 81.9971 6.10227 81.6597 5.87145C81.3259 5.63707 80.914 5.51989 80.4239 5.51989C79.9339 5.51989 79.5202 5.63707 79.1828 5.87145C78.849 6.10227 78.5951 6.44318 78.4211 6.89418C78.2506 7.34162 78.1654 7.89205 78.1654 8.54545C78.1654 9.19886 78.2506 9.75107 78.4211 10.2021C78.5951 10.6495 78.849 10.9904 79.1828 11.2248C79.5202 11.4556 79.9339 11.571 80.4239 11.571C80.914 11.571 81.3259 11.4556 81.6597 11.2248C81.9971 10.9904 82.251 10.6495 82.4214 10.2021C82.5954 9.75107 82.6824 9.19886 82.6824 8.54545ZM87.0996 14V3.09091H91.8084C92.6181 3.09091 93.3265 3.23828 93.9338 3.53303C94.541 3.82777 95.0133 4.25213 95.3507 4.80611C95.688 5.36009 95.8567 6.02415 95.8567 6.7983C95.8567 7.57955 95.6827 8.23828 95.3347 8.7745C94.9902 9.31072 94.5055 9.71555 93.8805 9.98899C93.2591 10.2624 92.5328 10.3991 91.7019 10.3991H88.8894V8.09801H91.1053C91.4533 8.09801 91.7498 8.0554 91.9949 7.97017C92.2434 7.88139 92.4334 7.74112 92.5648 7.54936C92.6998 7.3576 92.7672 7.10724 92.7672 6.7983C92.7672 6.4858 92.6998 6.23189 92.5648 6.03658C92.4334 5.83771 92.2434 5.69212 91.9949 5.59979C91.7498 5.50391 91.4533 5.45597 91.1053 5.45597H90.0613V14H87.0996ZM93.4917 8.9929L96.2189 14H93.0016L90.3382 8.9929H93.4917ZM97.1191 14V3.09091H104.981V5.47727H100.081V7.35227H104.577V9.73864H100.081V11.6136H104.96V14H97.1191Z" fill="white"/>
<path d="M44.7031 27V16.0909H49.4119C50.2216 16.0909 50.93 16.2507 51.5373 16.5703C52.1445 16.8899 52.6168 17.3391 52.9542 17.918C53.2915 18.4968 53.4602 19.1733 53.4602 19.9474C53.4602 20.7287 53.2862 21.4052 52.9382 21.9769C52.5938 22.5487 52.109 22.989 51.484 23.2979C50.8626 23.6069 50.1364 23.7614 49.3054 23.7614H46.4929V21.4602H48.7088C49.0568 21.4602 49.3533 21.3999 49.5984 21.2791C49.8469 21.1548 50.0369 20.979 50.1683 20.7518C50.3033 20.5245 50.3707 20.2564 50.3707 19.9474C50.3707 19.6349 50.3033 19.3686 50.1683 19.1484C50.0369 18.9247 49.8469 18.7543 49.5984 18.6371C49.3533 18.5163 49.0568 18.456 48.7088 18.456H47.6648V27H44.7031ZM54.5469 27V16.0909H57.5085V24.6136H61.919V27H54.5469ZM65.95 27H62.754L66.3548 16.0909H70.4031L74.004 27H70.808L68.4216 19.0952H68.3364L65.95 27ZM65.3534 22.696H71.3619V24.9119H65.3534V22.696ZM84.4936 16.0909V27H82.022L78.0803 21.2685H78.0163V27H75.0547V16.0909H77.5689L81.4467 21.8011H81.532V16.0909H84.4936ZM85.5962 18.4773V16.0909H95.0778V18.4773H91.7965V27H88.8775V18.4773H85.5962ZM102.073 19.5C102.045 19.1449 101.911 18.8679 101.674 18.669C101.439 18.4702 101.082 18.3707 100.603 18.3707C100.297 18.3707 100.047 18.408 99.8518 18.4826C99.6601 18.5536 99.518 18.6513 99.4257 18.7756C99.3334 18.8999 99.2854 19.0419 99.2819 19.2017C99.2748 19.3331 99.2979 19.4521 99.3511 19.5586C99.4079 19.6616 99.4967 19.7557 99.6175 19.8409C99.7382 19.9226 99.8927 19.9972 100.081 20.0646C100.269 20.1321 100.493 20.1925 100.752 20.2457L101.647 20.4375C102.251 20.5653 102.767 20.734 103.197 20.9435C103.627 21.1531 103.978 21.3999 104.252 21.6839C104.525 21.9645 104.726 22.2805 104.854 22.6321C104.985 22.9837 105.052 23.3672 105.056 23.7827C105.052 24.5 104.873 25.1072 104.518 25.6044C104.163 26.1016 103.655 26.4798 102.995 26.739C102.338 26.9982 101.547 27.1278 100.624 27.1278C99.676 27.1278 98.8486 26.9876 98.142 26.707C97.4388 26.4265 96.892 25.995 96.5013 25.4126C96.1143 24.8267 95.9189 24.0774 95.9154 23.1648H98.7279C98.7456 23.4986 98.8291 23.7791 98.9782 24.0064C99.1274 24.2337 99.3369 24.4059 99.6068 24.5231C99.8802 24.6403 100.205 24.6989 100.582 24.6989C100.898 24.6989 101.162 24.6598 101.375 24.5817C101.588 24.5036 101.75 24.3952 101.86 24.2567C101.97 24.1183 102.027 23.9602 102.03 23.7827C102.027 23.6158 101.972 23.4702 101.865 23.3459C101.762 23.218 101.592 23.1044 101.354 23.005C101.116 22.902 100.795 22.8061 100.39 22.7173L99.3032 22.483C98.3373 22.2734 97.5756 21.9237 97.018 21.4336C96.464 20.94 96.1888 20.267 96.1924 19.4148C96.1888 18.7223 96.3735 18.1168 96.7464 17.5984C97.1228 17.0763 97.643 16.6697 98.3071 16.3786C98.9747 16.0874 99.74 15.9418 100.603 15.9418C101.484 15.9418 102.245 16.0891 102.888 16.3839C103.531 16.6786 104.026 17.0941 104.374 17.6303C104.726 18.163 104.903 18.7862 104.907 19.5H102.073Z" fill="white"/>
</svg>
